<svg xmlns="http://www.w3.org/2000/svg" width="54" height="54" viewBox="0 0 54 54"><defs><style>.a{fill:#fff;}</style></defs><path class="a" d="M27,54A27,27,0,1,1,54,27,27.03,27.03,0,0,1,27,54ZM27,3.375A23.625,23.625,0,1,0,50.625,27,23.651,23.651,0,0,0,27,3.375Z"/><path class="a" d="M11.937,25.126a1.674,1.674,0,0,1-1.192-.495l-6.75-6.75a1.688,1.688,0,0,1,0-2.387l6.75-6.75a1.688,1.688,0,0,1,2.387,2.387L7.574,16.688l5.557,5.558a1.686,1.686,0,0,1-1.195,2.88Z" transform="translate(4.375 10.312)"/><path class="a" d="M11.688,29.5a1.744,1.744,0,0,1-.477-.068,1.688,1.688,0,0,1-1.143-2.095L15.693,8.211a1.687,1.687,0,0,1,3.238.952L13.306,28.288A1.684,1.684,0,0,1,11.688,29.5Z" transform="translate(12.499 8.752)"/><path class="a" d="M17.687,25.127a1.689,1.689,0,0,1-1.193-2.882l5.557-5.558L16.495,11.13a1.688,1.688,0,0,1,2.387-2.387l6.75,6.75a1.688,1.688,0,0,1,0,2.387l-6.75,6.75A1.676,1.676,0,0,1,17.687,25.127Z" transform="translate(20 10.31)"/></svg>