<svg xmlns="http://www.w3.org/2000/svg" width="54" height="47.324" viewBox="0 0 54 47.324"><defs><style>.a{fill:#fff;}</style></defs><path class="a" d="M49.041,0H4.959A4.965,4.965,0,0,0,0,4.959V30.536A4.965,4.965,0,0,0,4.959,35.5H21.381l-.5,8.522H17.137a1.653,1.653,0,0,0,0,3.306H36.863a1.653,1.653,0,0,0,0-3.306H33.114l-.5-8.522H49.041A4.965,4.965,0,0,0,54,30.536V4.959A4.965,4.965,0,0,0,49.041,0ZM24.2,44.018l.5-8.522h4.614l.5,8.522Zm26.5-13.481a1.655,1.655,0,0,1-1.653,1.653H4.959a1.655,1.655,0,0,1-1.653-1.653V4.959A1.655,1.655,0,0,1,4.959,3.306H49.041a1.655,1.655,0,0,1,1.653,1.653Zm0,0"/><path class="a" d="M114.948,84.46a1.817,1.817,0,0,0-2.559.224l-6.671,7.947a1.817,1.817,0,0,0,0,2.336l6.671,7.947a1.817,1.817,0,0,0,2.783-2.336l-5.69-6.779,5.69-6.779A1.817,1.817,0,0,0,114.948,84.46Zm0,0" transform="translate(-94.419 -75.699)"/><path class="a" d="M321.014,84.682a1.816,1.816,0,1,0-2.782,2.336l5.69,6.779-5.69,6.779a1.816,1.816,0,0,0,2.782,2.336l6.671-7.947a1.817,1.817,0,0,0,0-2.336Zm0,0" transform="translate(-284.984 -75.698)"/><path class="a" d="M221.939,84.158a1.816,1.816,0,0,0-2.358,1.02l-6.3,15.894a1.817,1.817,0,1,0,3.378,1.338l6.3-15.894A1.817,1.817,0,0,0,221.939,84.158Zm0,0" transform="translate(-191.121 -75.694)"/></svg>