<svg xmlns="http://www.w3.org/2000/svg" width="46.545" height="32" viewBox="0 0 46.545 32"><g transform="translate(0 -80)"><g transform="translate(30.688 85.792)"><path d="M339.392,155.344l15.858,10.025V144.9Z" transform="translate(-339.392 -144.896)"/></g><g transform="translate(0 85.792)"><path d="M0,144.9v20.473l15.858-10.025Z" transform="translate(0 -144.896)"/></g><g transform="translate(0.088 80)"><g transform="translate(0 0)"><path d="M44.507,80H3.782A2.883,2.883,0,0,0,.96,82.5L24.145,97.939,47.329,82.5A2.883,2.883,0,0,0,44.507,80Z" transform="translate(-0.96 -80)"/></g></g><g transform="translate(0.094 97.844)"><g transform="translate(0 0)"><path d="M29.119,277.923,25,280.663a1.448,1.448,0,0,1-1.6,0l-4.116-2.743L1.024,289.594a2.878,2.878,0,0,0,2.816,2.481H44.565a2.878,2.878,0,0,0,2.816-2.481Z" transform="translate(-1.024 -277.92)"/></g></g></g></svg>