<svg xmlns="http://www.w3.org/2000/svg" width="115.911" height="54.834" viewBox="0 0 115.911 54.834"><defs><style>.a{fill:#fc9100;}.b{fill:#3e76bb;}.c{fill:#fb0;}.d{fill:#e63917;}</style></defs><g transform="translate(-51.903 10.293)"><path d="M51.9,36.623V11.735a2.9,2.9,0,0,1,2.909-2.91H72.105v4.767H57.559v5.981H68.387v1.858a2.9,2.9,0,0,1-2.909,2.909H57.559v7.111H72.105v5.172Z"/><path d="M93.26,36.623H87.684V22.885a3.326,3.326,0,0,0-1.171-2.827,4.246,4.246,0,0,0-2.627-.89,4.07,4.07,0,0,0-2.585.89,3.372,3.372,0,0,0-1.133,2.827V36.623H74.513V24.017q0-5.495,2.868-7.354a12.554,12.554,0,0,1,6.344-2.02,16.374,16.374,0,0,1,3.636.405,7.656,7.656,0,0,1,3.232,1.615,7.168,7.168,0,0,1,2.869-1.494,16.087,16.087,0,0,1,3.435-.526,12.171,12.171,0,0,1,6.545,1.859q2.988,1.858,2.99,7.515V36.623H103.6a2.633,2.633,0,0,1-2.748-2.748V22.885a3.321,3.321,0,0,0-1.171-2.827,4.319,4.319,0,0,0-5.252,0,3.321,3.321,0,0,0-1.172,2.827V36.623Z"/><path d="M114.181,41.794a2.759,2.759,0,0,1-2.747,2.747h-2.748V24.42q0-5.654,3.313-7.716a13.367,13.367,0,0,1,7.192-2.061,11.648,11.648,0,0,1,4.08.768,7.615,7.615,0,0,1,3.273,2.221,12.882,12.882,0,0,1,2.424,8.081,13.144,13.144,0,0,1-2.424,8.242,7.578,7.578,0,0,1-6.222,3.071,8.214,8.214,0,0,1-3.555-.727,6.075,6.075,0,0,1-2.586-2.505Zm9.211-15.839a8.27,8.27,0,0,0-1.211-4.847,4.012,4.012,0,0,0-3.475-1.7,3.93,3.93,0,0,0-3.394,1.7,8.234,8.234,0,0,0-1.131,4.847,7.345,7.345,0,0,0,1.213,4.608,4.012,4.012,0,0,0,3.475,1.7,3.857,3.857,0,0,0,3.312-1.7A7.8,7.8,0,0,0,123.392,25.955Z"/><path d="M130.783,15.128h2.91a2.757,2.757,0,0,1,2.746,2.748V36.623h-5.656Z"/><path d="M147.656,36.623a42.337,42.337,0,0,1-5.778-.081q-3.111-.243-3.111-3.96V8.825h2.908a2.559,2.559,0,0,1,1.86.809,2.652,2.652,0,0,1,.808,1.938v3.637h3.313v1.132a2.606,2.606,0,0,1-.809,1.979,2.709,2.709,0,0,1-1.939.767h-.565v11.96q0,1.375,1.615,1.374h1.7Z"/><path d="M163.449,30h4.041a8.816,8.816,0,0,1-3.393,5.172,10.292,10.292,0,0,1-6.3,1.858,9,9,0,0,1-7.191-2.99q-2.587-2.907-2.586-8.323,0-5.169,2.506-8.081a9.007,9.007,0,0,1,7.191-2.989,9.686,9.686,0,0,1,7.516,2.909q2.585,2.991,2.586,8.323v.889a1.389,1.389,0,0,1-.082.565H153.753a5.566,5.566,0,0,0,1.211,3.718,3.822,3.822,0,0,0,3.153,1.293,4.568,4.568,0,0,0,2.343-.566,1.119,1.119,0,0,0,.444-.283l.445-.444a1.751,1.751,0,0,1,.6-.646A2.413,2.413,0,0,1,163.449,30Zm-9.7-6.3h8.242a5.243,5.243,0,0,0-1.13-3.232,3.885,3.885,0,0,0-2.991-1.132,3.944,3.944,0,0,0-2.91,1.132A4.637,4.637,0,0,0,153.753,23.694Z"/><path class="a" d="M130.783,8.825h2.91a2.759,2.759,0,0,1,2.746,2.747v1.7h-5.656Z"/><path class="b" d="M90.539,12.881l-3.8-3.8,3.8-19.377,3.8,19.377Z"/><path class="c" d="M82.73,11.189H78.638L70.966-.632,82.73,6.982Z"/><path class="d" d="M98.73,11.189h3.736l7.848-11.82L98.73,6.982Z"/></g></svg>