<svg xmlns="http://www.w3.org/2000/svg" width="32" height="32" viewBox="0 0 32 32"><g transform="translate(0 0)"><g transform="translate(22.753 19.11)"><path d="M369.356,306.068l-3.895-3.9a2.822,2.822,0,0,0-3.9,0l-.649.649,7.79,7.79.649-.649A2.752,2.752,0,0,0,369.356,306.068Z" transform="translate(-360.917 -301.393)"/></g><g transform="translate(0 2.781)"><g transform="translate(0)"><path d="M21.238,64.226a2.114,2.114,0,0,1-2.8-.144L10.557,56.2a2.114,2.114,0,0,1-.144-2.8L2.46,45.443a10.143,10.143,0,0,0,.488,13.773L15.418,71.691a10.085,10.085,0,0,0,13.774.488Z" transform="translate(0 -45.443)"/></g></g><g transform="translate(3.649 0)"><path d="M68.051,4.675,64.157.78a2.822,2.822,0,0,0-3.9,0l-.649.649,7.79,7.79.649-.649A2.752,2.752,0,0,0,68.051,4.675Z" transform="translate(-59.612 0)"/></g></g></svg>