<svg xmlns="http://www.w3.org/2000/svg" width="60" height="56.25" viewBox="0 0 60 56.25"><defs><style>.a{fill:#fff;}</style></defs><g transform="translate(0 -16)"><path class="a" d="M49.332,35.665c0-.11,0-.219,0-.329a19.336,19.336,0,1,0-38.672,0c0,.11,0,.22,0,.329A19.344,19.344,0,1,0,30,69.112,19.222,19.222,0,0,0,40.547,72.25a19.314,19.314,0,0,0,8.785-36.585ZM30,64.695A15.79,15.79,0,0,1,24.761,53.95a19.378,19.378,0,0,0,10.477,0A15.79,15.79,0,0,1,30,64.695Zm0-13.539a15.755,15.755,0,0,1-5.061-.83A15.811,15.811,0,0,1,30,41.133a15.812,15.812,0,0,1,5.061,9.193A15.755,15.755,0,0,1,30,51.156Zm-8.341-2.383a15.855,15.855,0,0,1-7.268-10.86,15.979,15.979,0,0,1,5.063-.819,15.722,15.722,0,0,1,7.624,1.962A19.328,19.328,0,0,0,21.659,48.773Zm11.264-9.717a15.722,15.722,0,0,1,7.624-1.962,15.979,15.979,0,0,1,5.063.819,15.855,15.855,0,0,1-7.268,10.86A19.328,19.328,0,0,0,32.923,39.056ZM30,19.516A15.84,15.84,0,0,1,45.785,34.291a19.513,19.513,0,0,0-5.238-.713A19.222,19.222,0,0,0,30,36.716a19.222,19.222,0,0,0-10.547-3.138,19.513,19.513,0,0,0-5.238.713A15.84,15.84,0,0,1,30,19.516ZM19.453,68.734A15.8,15.8,0,0,1,11.1,39.443,19.407,19.407,0,0,0,21.216,52.559c0,.118,0,.237,0,.355a19.279,19.279,0,0,0,5.866,13.858A15.722,15.722,0,0,1,19.453,68.734Zm21.094,0a15.722,15.722,0,0,1-7.624-1.962,19.279,19.279,0,0,0,5.866-13.858c0-.119,0-.237,0-.355A19.407,19.407,0,0,0,48.9,39.443a15.8,15.8,0,0,1-8.348,29.291Z"/></g></svg>