<svg xmlns="http://www.w3.org/2000/svg" width="37.797" height="62.426" viewBox="0 0 37.797 62.426"><defs><style>.a{fill:#fff;}</style></defs><g transform="translate(-101)"><path class="a" d="M133.895,0H105.9A4.908,4.908,0,0,0,101,4.9V57.524a4.908,4.908,0,0,0,4.9,4.9h27.992a4.908,4.908,0,0,0,4.9-4.9V4.9a4.908,4.908,0,0,0-4.9-4.9ZM114.186,3.658h11.438V5.5H114.186Zm20.954,53.866a1.246,1.246,0,0,1-1.245,1.245H105.9a1.246,1.246,0,0,1-1.245-1.245V4.9A1.246,1.246,0,0,1,105.9,3.658h4.625V6a3.163,3.163,0,0,0,3.158,3.162h12.438A3.163,3.163,0,0,0,129.281,6V3.658h4.613A1.246,1.246,0,0,1,135.139,4.9V57.524Z" transform="translate(0)"/><path class="a" d="M211.845,432.1H201.838a1.829,1.829,0,0,0,0,3.658h10.007a1.829,1.829,0,0,0,0-3.658Z" transform="translate(-86.937 -379.419)"/></g></svg>